<svg xmlns="http://www.w3.org/2000/svg" width="2152" height="128" viewBox="0 0 2152 128"><path d="M66.657.95a70.334 70.334 0 00-33.84 8.094A60.469 60.469 0 009.125 31.517 61.922 61.922 0 00.5 64a61.917 61.917 0 008.625 32.483 60.452 60.452 0 0023.692 22.472l.281-.522.281-.523a59.259 59.259 0 01-23.237-22.037A60.729 60.729 0 011.686 64a60.728 60.728 0 018.456-31.872 59.288 59.288 0 0123.237-22.04 69.151 69.151 0 0133.278-7.952A69.828 69.828 0 0194.8 7.608a56.308 56.308 0 0120.726 15.278l-17.08 15.767c-8.181-9.232-18.358-13.893-30.38-13.894h-.03a40.913 40.913 0 00-20.3 4.993A35.556 35.556 0 0033.788 43.7 40.925 40.925 0 0028.8 64a40.917 40.917 0 004.993 20.3 35.549 35.549 0 0013.941 13.948 40.894 40.894 0 0020.3 4.993h.035c12.026 0 22.2-4.716 30.383-14.063l17.08 15.767a55.34 55.34 0 01-20.813 15.446 70.446 70.446 0 01-28.233 5.472 68.75 68.75 0 01-33.1-7.953l-.281.523-.281.522a69.953 69.953 0 0033.661 8.094h.005a71.634 71.634 0 0028.7-5.568 56.562 56.562 0 0021.61-16.214l.354-.433L98.35 87.473l-.4.468c-8.081 9.434-18 14.105-29.914 14.114a39.715 39.715 0 01-19.724-4.842 34.362 34.362 0 01-13.488-13.489A39.718 39.718 0 0129.981 64a39.726 39.726 0 014.843-19.724 34.353 34.353 0 0113.488-13.488 39.715 39.715 0 0119.724-4.842c11.921.008 21.836 4.627 29.916 13.944l.4.462 18.808-17.361-.361-.433A57.472 57.472 0 0095.273 6.521 70.991 70.991 0 0066.657.95m92.397 50.875h56.052V4.207h26.765v119.587h-26.765V74.277h-56.052v49.517h-26.763V4.208h26.763v47.617m84.003-48.804H213.92v47.618h-53.679V3.021H131.1V124.98h29.136V75.463h53.684v49.517h29.137V3.021M264.8 4.208h26.76v119.586H264.8V4.208m27.95-1.187h-29.14V124.98h29.136V3.021m21.737 1.187h26.764v98h60.558v21.588h-87.322V4.208m27.95-1.187H313.3V124.98h89.694v-23.96h-60.561v-98m76.256 1.188h26.764v98h60.558v21.588h-87.322V4.208m27.95-1.187H417.5V124.98h89.7v-23.96h-60.561v-98M611.6 102.055a37.716 37.716 0 01-19.031-4.839 34.7 34.7 0 01-13.32-13.492A39.728 39.728 0 01574.4 64a39.736 39.736 0 014.842-19.724 34.689 34.689 0 0113.32-13.491 39.837 39.837 0 0138.059 0 34.7 34.7 0 0113.321 13.491A39.736 39.736 0 01648.788 64a39.728 39.728 0 01-4.842 19.724 34.707 34.707 0 01-13.321 13.492 37.726 37.726 0 01-19.028 4.839m0-77.3a38.926 38.926 0 00-19.618 5A35.881 35.881 0 00578.211 43.7a40.925 40.925 0 00-4.993 20.3 40.917 40.917 0 004.993 20.3 35.874 35.874 0 0013.768 13.943 38.911 38.911 0 0019.614 5 38.918 38.918 0 0019.615-5A35.887 35.887 0 00644.98 84.3a40.907 40.907 0 004.994-20.3 40.915 40.915 0 00-4.994-20.3 35.887 35.887 0 00-13.768-13.943 38.933 38.933 0 00-19.61-5M611.6.95a71.114 71.114 0 00-34.184 8.18 60.765 60.765 0 00-23.864 22.561A61.6 61.6 0 00544.922 64a61.589 61.589 0 008.627 32.309 60.741 60.741 0 0023.864 22.56l.28-.522.28-.523A59.543 59.543 0 01554.566 95.7a60.4 60.4 0 01-8.458-31.7 60.4 60.4 0 018.458-31.7 59.562 59.562 0 0123.407-22.126A69.934 69.934 0 01611.6 2.136q18.677 0 33.534 8.038A59.841 59.841 0 01677.083 64a59.838 59.838 0 01-31.952 53.825q-14.872 8.037-33.534 8.038a69.876 69.876 0 01-33.624-8.038l-.28.522-.28.522a71.06 71.06 0 0034.179 8.18q18.93 0 34.1-8.18A61.024 61.024 0 00678.269 64a61.024 61.024 0 00-32.575-54.869Q630.55.95 611.6.95m192.617 2.071h-28.791v67.19c0 11.083-2.3 19.129-6.753 24.2-4.476 5.085-10.94 7.643-19.569 7.649-8.86-.007-15.371-2.65-19.729-7.894s-6.6-13.213-6.593-23.95V3.021h-29.136v68.225c0 17.815 4.838 31.631 14.582 41.311l.419-.421.417-.421c-9.464-9.415-14.228-22.855-14.232-40.469V4.208H721.6v66c0 10.89 2.254 19.144 6.866 24.707s11.542 8.323 20.606 8.323h.069c8.836 0 15.705-2.673 20.427-8.053 4.737-5.4 7.046-13.743 7.048-24.977v-66h26.419v67.038c0 17.613-4.766 31.057-14.232 40.469s-22.718 14.144-39.867 14.148-30.4-4.731-39.868-14.147l-.417.42-.419.421c9.727 9.677 23.336 14.493 40.68 14.493h.048c17.346 0 30.95-4.815 40.679-14.493s14.586-23.5 14.582-41.311V3.021m17.419 22.774V4.208H925.7V25.8h-38.647v98h-26.764v-98h-38.646M926.886 3.021H820.457v23.96H859.1v98h29.136v-98h38.647V3.021M1033.951 25.8h-23.367v43.279h23.367c8.474 0 15.01-1.854 19.533-5.661s6.775-9.185 6.767-15.981c.008-6.906-2.251-12.332-6.771-16.071l-.379.457-.378.456c4.218 3.507 6.333 8.494 6.342 15.158-.009 6.548-2.122 11.507-6.345 15.074s-10.457 5.382-18.769 5.382h-22.181V26.981h22.186c8.31 0 14.546 1.8 18.767 5.3l.378-.456.379-.457c-4.524-3.744-11.056-5.571-19.529-5.571m-50.132 98V4.208h51.681q15.948 0 27.62 5.3a40.82 40.82 0 0117.948 14.965c4.184 6.452 6.286 14.09 6.287 22.969s-2.129 16.487-6.37 22.877a40.406 40.406 0 01-18.117 14.709l-.665.289 26.851 38.482h-28.57L1037.2 90.15h-26.611v33.644h-26.77M1035.5 3.021h-52.867V124.98h29.137V91.336h24.8l23.294 33.644h31.466l-27.325-39.163a41.363 41.363 0 0017.97-14.847c4.385-6.6 6.57-14.467 6.568-23.533s-2.155-16.954-6.479-23.615a42.017 42.017 0 00-18.453-15.4q-11.961-5.408-28.109-5.4m71.671 120.772V4.207h90.084v21.244h-63.492v27.41h56.073v20.553h-56.073v29.136h65.735v21.244h-92.327m91.27-120.773h-92.453V124.98h94.7v-23.617h-65.735V74.6h56.073V51.675h-56.073V26.637h63.492V3.021m17.595 1.187h26.765v98h60.558v21.588h-87.323V4.208m27.951-1.187h-29.137V124.98h89.695v-23.96h-60.558v-98m119.338 73.673L1381.6 32.6l18.263 44.1h-36.528m18.265-47.2l-20.04 48.382h40.078l-.339-.82L1381.6 29.5m27.4 69.234l.548-.227-.548.227m-93.949 25.06l53.3-119.587h26.837l53.472 119.587h-28.019l-10.7-25.88h-56.867l-10.7 25.88h-27.33m80.9-120.773h-28.376l-54.345 121.959h29.949l10.7-25.88h55.281l10.7 25.88h30.642l-54.54-121.959m60.474 120.773l44.253-60.826-42.02-58.761h30.286l28.089 39.6 27.564-39.6h28.723l-41.669 57.721 44.605 61.865h-30.8l-29.472-42.379-28.95 42.379h-30.613M1575.644 3.021h-31.662l-26.954 38.726-27.468-38.726h-33.2l42.865 59.94-45.125 62.019h33.569L1516 83.506l28.843 41.474h33.733l-45.459-63.05 42.526-58.909m60.286 73.672l18.263-44.1 18.265 44.1h-36.528m18.262-47.2l-20.038 48.383h40.078l-.339-.82-19.7-47.563m27.4 69.238l.548-.227-.548.227m-93.948 25.06l53.3-119.586h26.836l53.472 119.586h-28.019l-10.7-25.88h-56.865l-10.7 25.88h-27.329m80.9-120.773h-28.375L1585.82 124.98h29.949l10.7-25.88h55.28l10.7 25.88h30.642L1668.552 3.021m49.725 22.774V4.207h104.058V25.8h-38.647v98h-26.765v-98h-38.646m105.244-22.779h-106.43v23.96h38.645v98h29.137v-98h38.648V3.021m18.461 1.187h26.764v119.586h-26.764V4.208m27.95-1.187H1840.8V124.98h29.136V3.021m86.531 99.034a37.707 37.707 0 01-19.03-4.839 34.683 34.683 0 01-13.322-13.492A39.728 39.728 0 011919.273 64a39.736 39.736 0 014.842-19.724 34.678 34.678 0 0113.321-13.491 39.837 39.837 0 0138.059 0 34.7 34.7 0 0113.32 13.491A39.736 39.736 0 011993.657 64a39.728 39.728 0 01-4.842 19.724 34.7 34.7 0 01-13.32 13.492 37.734 37.734 0 01-19.028 4.839m0-77.3a38.926 38.926 0 00-19.618 5 35.886 35.886 0 00-13.77 13.943 40.935 40.935 0 00-4.992 20.3 40.927 40.927 0 004.992 20.3 35.879 35.879 0 0013.77 13.943 38.907 38.907 0 0019.613 5h.005a38.926 38.926 0 0019.615-5 35.9 35.9 0 0013.769-13.941 40.916 40.916 0 004.992-20.3 40.924 40.924 0 00-4.992-20.3 35.9 35.9 0 00-13.769-13.943 38.942 38.942 0 00-19.611-5m0-23.809a71.115 71.115 0 00-34.185 8.18 60.774 60.774 0 00-23.865 22.561A61.585 61.585 0 001889.793 64a61.577 61.577 0 008.624 32.309 60.75 60.75 0 0023.865 22.56l.281-.522.28-.523a59.554 59.554 0 01-23.409-22.124 60.4 60.4 0 01-8.456-31.7 60.4 60.4 0 018.456-31.7 59.576 59.576 0 0123.41-22.126 69.91 69.91 0 0133.623-8.039q18.675 0 33.533 8.038A59.837 59.837 0 012021.951 64 59.834 59.834 0 011990 117.825q-14.872 8.037-33.533 8.038a69.861 69.861 0 01-33.623-8.038l-.281.522-.281.522a71.063 71.063 0 0034.179 8.18h.006q18.928 0 34.1-8.18A61.024 61.024 0 002023.138 64a61.024 61.024 0 00-32.575-54.869Q1975.421.95 1956.471.95m167.423 77.65V4.208h26.42v119.586h-22.073l-61.088-74.389v74.389h-26.419V4.208h22.246l60.914 74.392M2151.5 3.02h-28.792v72.259l-59.166-72.258h-23.994V124.98h28.791V52.717l59.341 72.263h23.82V3.021" fill="#0c6170"/></svg>