<svg id="Feature" xmlns="http://www.w3.org/2000/svg" viewBox="0 0 241.13 50.71"><title>feature</title><path d="M6.17,11.47H39.75v7.45H14.94V32.86H38.19v7.45H14.94v21H6.17Z" transform="translate(-6.17 -11.47)"/><path d="M52.89,44.59c0,5.86,3,10.73,8.57,10.73,4.94,0,6.44-2.27,7.51-4.71h8.6c-1.38,4.62-5.38,11.57-16.35,11.57-11.93,0-17-9.25-17-18.86C44.25,32,50,23.51,61.61,23.51c12.35,0,16.49,9.34,16.49,18a25.35,25.35,0,0,1-.12,3.1Zm16.59-5.52c-.08-5.06-2.37-9.22-7.92-9.22s-7.94,3.87-8.45,9.22Z" transform="translate(-6.17 -11.47)"/><path d="M114.86,52.41a72.61,72.61,0,0,0,.5,8.9h-8.19a17.05,17.05,0,0,1-.56-4.14c-1.32,2.25-4,5-10.82,5-8.82,0-12.56-5.78-12.56-11.46,0-8.35,6.63-12.18,17.53-12.18h5.71V35.9c0-2.9-1-6.08-6.66-6.08-5.11,0-6.1,2.36-6.66,5.13H85c.53-5.93,4.2-11.49,15.17-11.44,9.52,0,14.74,3.83,14.74,12.45ZM106.5,44h-5c-6.68,0-9.67,2-9.67,6.22,0,3.17,2.06,5.66,6.12,5.66,7.52,0,8.5-5.15,8.5-10.82Z" transform="translate(-6.17 -11.47)"/><path d="M120.14,24.37h6V14h8.58V24.37h7.63V31h-7.63v19.7c0,3.14.86,4.55,4,4.55a15.71,15.71,0,0,0,2.72-.2v6.08a20.51,20.51,0,0,1-6.3.7c-6.58,0-9-3.48-9-9.81V31h-6Z" transform="translate(-6.17 -11.47)"/><path d="M179.42,50.56c0,3.58,0,7.93.08,10.75h-8.39c-.14-1-.21-3.08-.26-4.81-2,3.88-5.42,5.68-10.61,5.68-7,0-12.28-3.94-12.28-13.65V24.37h8.55V46.78c0,4.41,1.38,8.25,6.53,8.25,5.58,0,7.81-3,7.81-11.17V24.37h8.57Z" transform="translate(-6.17 -11.47)"/><path d="M189.38,34.4c0-4.32,0-7.42-.07-10h8.41c.12.92.24,4.25.24,6.94,1.76-4.56,5.9-7.7,12.11-7.8v8.3c-7.49,0-12.11,2.82-12.11,12.61V61.31h-8.58Z" transform="translate(-6.17 -11.47)"/><path d="M222.09,44.59c0,5.86,3,10.73,8.57,10.73,4.94,0,6.44-2.27,7.51-4.71h8.6c-1.38,4.62-5.38,11.57-16.35,11.57-11.93,0-17-9.25-17-18.86,0-11.33,5.77-19.81,17.37-19.81,12.35,0,16.49,9.34,16.49,18a25.35,25.35,0,0,1-.12,3.1Zm16.59-5.52c-.08-5.06-2.37-9.22-7.92-9.22s-7.94,3.87-8.45,9.22Z" transform="translate(-6.17 -11.47)"/></svg>