<svg id="Flavor" xmlns="http://www.w3.org/2000/svg" viewBox="0 0 194.11 53.56"><title>flavor</title><path d="M6.17,11.47H39.75v7.45H14.94V32.86H38.19v7.45H14.94v21H6.17Z" transform="translate(-6.17 -8.62)"/><path d="M46.32,61.31V8.62H54.9V61.31Z" transform="translate(-6.17 -8.62)"/><path d="M93.76,52.41a70.06,70.06,0,0,0,.51,8.9h-8.2a17.13,17.13,0,0,1-.55-4.14c-1.32,2.25-4,5-10.83,5-8.82,0-12.56-5.78-12.56-11.46,0-8.35,6.64-12.18,17.53-12.18h5.72V35.9c0-2.9-1-6.08-6.66-6.08-5.12,0-6.1,2.36-6.66,5.13h-8.2C64.39,29,68.05,23.46,79,23.51c9.53,0,14.74,3.83,14.74,12.45ZM85.4,44H80.46c-6.68,0-9.68,2-9.68,6.22,0,3.17,2.07,5.66,6.12,5.66,7.53,0,8.5-5.15,8.5-10.82Z" transform="translate(-6.17 -8.62)"/><path d="M107.8,24.37c4.14,13.63,7.37,24.72,8.27,29.23h.08c1-5.24,4.73-16.35,8.94-29.23h8.61L120.41,61.31h-9.15L98.58,24.37Z" transform="translate(-6.17 -8.62)"/><path d="M172,42.77c0,10.95-6.44,19.41-18,19.41-11.08,0-17.64-8.18-17.64-19.25s6.62-19.42,18.1-19.42C165.12,23.51,172,31.18,172,42.77Zm-26.87.07c0,7.54,3.48,12.48,9.14,12.48s9-4.81,9-12.43c0-8-3.24-12.53-9.12-12.53C148.48,30.36,145.15,34.76,145.15,42.84Z" transform="translate(-6.17 -8.62)"/><path d="M179.59,34.4c0-4.32,0-7.42-.07-10h8.41c.12.92.24,4.25.24,6.94,1.76-4.56,5.9-7.7,12.1-7.8v8.3c-7.48,0-12.1,2.82-12.1,12.61V61.31h-8.58Z" transform="translate(-6.17 -8.62)"/></svg>