<svg xmlns="http://www.w3.org/2000/svg" width="322" height="322" viewBox="0 0 322 322"><g fill="#0c6170"><path d="M291.56 126.57a8.362 8.362 0 00-6.56 5.85 9.836 9.836 0 00-.2 4.84 9.856 9.856 0 002.01 4.4 8.57 8.57 0 0014.69-2.454c.054-.147.1-.3.15-.446a10.424 10.424 0 00-1.81-9.25 8.407 8.407 0 00-3.68-2.63 8.593 8.593 0 00-4.6-.31zm5.86 5.48a5.677 5.677 0 011.03 5.28 4.959 4.959 0 01-1.51 2.22 6.058 6.058 0 01-5.47 1.07 5 5 0 01-2.23-1.49 5.58 5.58 0 01-1.03-5.27 4.837 4.837 0 011.51-2.22 6.05 6.05 0 015.46-1.07 4.954 4.954 0 012.24 1.48zM91.016 57.515a6.915 6.915 0 001.214-.8 7.6 7.6 0 003.57-4.76 7.685 7.685 0 00-1.47-5.85l-5.19-7.84-3.21 2.12 5.12 7.72a5.094 5.094 0 011.09 3.38 3.517 3.517 0 01-1.72 2.45c-2.08 1.38-3.949.81-5.61-1.69l-5.12-7.73-3.24 2.15 5.19 7.84a6.962 6.962 0 009.376 3.01zM58.45 88.88l-2.69-1.68-4.46 7.14-11.56-7.22-2.06 3.29 14.24 8.91 6.53-10.44zM49.7 103.6l-15.03-7.51-1.73 3.48 15.02 7.51 1.74-3.48zm50.18-67.31l5.85 12.31 3.51-1.67-5.85-12.31 4.86-2.31-1.36-2.86-13.23 6.28 1.36 2.86 4.86-2.3zM67.305 71.565l.175.055a8.388 8.388 0 004.53.05 9.891 9.891 0 004.22-2.38 9.766 9.766 0 002.69-4.03 8.695 8.695 0 00-5.75-11.04 8.5 8.5 0 00-4.53-.05 9.871 9.871 0 00-4.22 2.37 9.981 9.981 0 00-2.69 4.03 8.717 8.717 0 005.575 10.995zM65.17 61.3a5.62 5.62 0 013.94-3.65 4.9 4.9 0 012.68.12 5.488 5.488 0 012.39 1.57 5.611 5.611 0 011.39 2.51 4.884 4.884 0 01-.08 2.68 5.61 5.61 0 01-3.95 3.65 4.851 4.851 0 01-2.67-.12 5.57 5.57 0 01-2.4-1.57 5.726 5.726 0 01-1.39-2.51 4.894 4.894 0 01.09-2.68zm221.898 94.716a6.929 6.929 0 00.043 1.475 7.606 7.606 0 002.17 5.53 7.7 7.7 0 005.76 1.811l9.4-.311-.13-3.84-9.26.31a5.073 5.073 0 01-3.45-.85 3.492 3.492 0 01-1.18-2.74c-.09-2.5 1.371-3.79 4.38-3.89l9.26-.31-.13-3.89-9.4.321a6.945 6.945 0 00-7.463 6.384zM68.05 76.88l-2.47-1.99-5.29 6.55-10.61-8.57-2.44 3.03 13.07 10.56 7.74-9.58zm209.43 34.95l2.84-1.41-3.75-7.54 12.21-6.06-1.73-3.49-15.05 7.48 5.48 11.02zm-89.499-74.39a9.808 9.808 0 004.29 2.25 9.8 9.8 0 004.84.06 8.612 8.612 0 003.7-14.66 10.364 10.364 0 00-9.13-2.31 8.368 8.368 0 00-6.189 6.23 8.562 8.562 0 00.06 4.61 8.458 8.458 0 002.429 3.82zm2.669-9.99a4.875 4.875 0 012.29-1.39 5.353 5.353 0 012.781-.01 5.42 5.42 0 012.439 1.32 5.023 5.023 0 011.361 2.31 5.707 5.707 0 01-.02 2.87 5.576 5.576 0 01-1.351 2.53 4.82 4.82 0 01-2.29 1.39 5.312 5.312 0 01-2.77.01 5.4 5.4 0 01-2.44-1.32 4.85 4.85 0 01-1.36-2.32 6.021 6.021 0 011.36-5.39zm20.901 18.82a6.944 6.944 0 0010.04-4.01l3.76-8.63-3.53-1.53-3.69 8.5a5.075 5.075 0 01-2.25 2.75 3.481 3.481 0 01-2.98-.11q-3.435-1.485-1.639-5.63l3.7-8.49-3.571-1.56-3.75 8.63a7.671 7.671 0 00-.429 6.02 7.586 7.586 0 004.339 4.06zm36.159 23.84a9.792 9.792 0 003.43 2.12 7.672 7.672 0 003.7.38l-.27-3.38a5.352 5.352 0 01-4.45-1.41 5.512 5.512 0 01-1.58-2.39 4.829 4.829 0 01-.11-2.69 5.568 5.568 0 011.39-2.51 5.512 5.512 0 012.39-1.58 4.829 4.829 0 012.69-.11 5.643 5.643 0 012.51 1.38 5.35 5.35 0 011.77 4.32h3.4a8.091 8.091 0 00-.68-3.64 10.442 10.442 0 00-6.57-5.59 8.386 8.386 0 00-4.5.06 8.592 8.592 0 00-3.91 2.49 8.363 8.363 0 00-1.86 8.58 9.555 9.555 0 002.65 3.97zM229 55.19l7.13-11.61 4.58 2.81 1.66-2.7-12.48-7.66-1.65 2.7 4.58 2.81-7.13 11.62 3.31 2.03zm40.52 41.48l14.26-8.88-2.06-3.3-14.26 8.88 2.06 3.3zM149.15 32.55l7.78-.52 1.73 3.5 4.07-.27-8.61-16.27-3.83.25-6.36 17.26 3.97-.26zm3.28-9.62l3.09 6.24-5.32.35zm130.21 103.36l2.99-1.06-2.79-7.94 12.861-4.53-1.291-3.66-15.85 5.57 4.08 11.62zm-240.82-4.08l-6.48-2.35 2.61-7.17 6.47 2.35 1.33-3.66-15.79-5.73-1.33 3.65 6.23 2.26-2.61 7.18-6.22-2.26-1.33 3.65 15.79 5.74 1.33-3.66zm82.94-87.31a2.472 2.472 0 001.69-3.06 2.474 2.474 0 00-3.06-1.69 2.472 2.472 0 001.37 4.751zm54.32.54a3.845 3.845 0 002-3.23 4.2 4.2 0 00-.58-2.69 4.391 4.391 0 00-2.12-1.71 4.157 4.157 0 001.77-1.37 4.112 4.112 0 00.77-2.12 3.711 3.711 0 00-1.36-3.32 7.989 7.989 0 00-4.6-1.58l-8.18-.71-1.44 16.74 8.65.75a8.68 8.68 0 005.09-.76zm-8.7-13.479l3.85.329a3.986 3.986 0 012.13.68 1.663 1.663 0 01.62 1.54 1.713 1.713 0 01-.87 1.42 3.929 3.929 0 01-2.22.31l-3.85-.33zm-.94 10.909l.36-4.14 4.52.39c2.05.18 3.02.96 2.9 2.35a1.707 1.707 0 01-.91 1.48 4.37 4.37 0 01-2.35.31zm88.33 47.35l5.39-4.29 4.75 5.97-5.39 4.29 2.42 3.05 13.15-10.47-2.42-3.04-5.18 4.13-4.76-5.98 5.19-4.12-2.43-3.04-13.14 10.46 2.42 3.04zM24.03 141.3a8.986 8.986 0 008.78 1.72 8.343 8.343 0 003.67-2.6 9.742 9.742 0 001.99-4.34 9.977 9.977 0 00.01-4.04 7.865 7.865 0 00-1.62-3.35l-2.74 2.01a5.356 5.356 0 011.14 4.52 5.494 5.494 0 01-1.21 2.6 4.787 4.787 0 01-2.24 1.51 6.05 6.05 0 01-5.46-1.07 4.893 4.893 0 01-1.51-2.24 5.645 5.645 0 01-.13-2.87 5.354 5.354 0 012.74-3.76l-1.78-2.9a7.921 7.921 0 00-2.73 2.49 10.351 10.351 0 00-1.32 8.52 8.25 8.25 0 002.41 3.8zm207.501 141.01l-6.67-11.879-3.39 1.9 6.67 11.889-4.68 2.63 1.55 2.76 12.76-7.17-1.55-2.76-4.69 2.63zm-66.031 5.1l.81 16.78 3.88-.18-.81-16.78-3.88.18zm73.446-26.881a6.9 6.9 0 00-1.165.881 6.94 6.94 0 00-1.38 10.72l5.71 7.47 3.05-2.331-5.62-7.36a5.078 5.078 0 01-1.32-3.3 3.49 3.49 0 011.55-2.55c1.98-1.52 3.889-1.08 5.71 1.3l5.629 7.36 3.091-2.36-5.72-7.47a6.946 6.946 0 00-9.535-2.36zM185.59 285.2l1.111 6.8-7.541 1.22-1.1-6.8-3.84.63 2.7 16.58 3.83-.63-1.06-6.53 7.53-1.23 1.07 6.54 3.83-.62-2.69-16.59-3.84.63zm79.271-51.68a8.787 8.787 0 00-1.84 4.81 3.908 3.908 0 001.85 3.33 4.222 4.222 0 002.63.8 4.373 4.373 0 002.53-1.009 4.108 4.108 0 00.33 2.209 4.032 4.032 0 001.47 1.72 3.732 3.732 0 003.57.43 7.979 7.979 0 003.62-3.24l4.61-6.79-13.89-9.44zm10.9 1.591l3.28 2.22-2.17 3.2a4.042 4.042 0 01-1.64 1.53 1.852 1.852 0 01-2.45-1.669 3.9 3.9 0 01.81-2.091zm-2.34-1.6l-2.55 3.76c-1.16 1.7-2.31 2.17-3.46 1.38a1.714 1.714 0 01-.86-1.52 4.342 4.342 0 01.889-2.2l2.55-3.75zm-7.91 13.549a8.495 8.495 0 00-4.06-2.19 8.377 8.377 0 00-4.51.26 9.809 9.809 0 00-4.06 2.66 9.763 9.763 0 00-2.41 4.19 8.486 8.486 0 00.01 4.53 8.673 8.673 0 0010.99 5.85 10.384 10.384 0 006.46-6.85 8.3 8.3 0 000-4.53 8.6 8.6 0 00-2.42-3.92zm-1.05 7.95a5.361 5.361 0 01-1.35 2.43 5.253 5.253 0 01-2.34 1.48 4.97 4.97 0 01-2.68.07 6.015 6.015 0 01-4.05-3.82 4.9 4.9 0 01-.1-2.68 5.359 5.359 0 011.351-2.43 5.231 5.231 0 012.34-1.479 4.97 4.97 0 012.68-.071 6.021 6.021 0 014.05 3.821 5 5 0 01.099 2.679zm27.252-60.12a2.475 2.475 0 00-1.333 4.768h.01a2.469 2.469 0 003.04-1.72 2.475 2.475 0 00-1.717-3.048zm8.788-20.209l-13.55-1.461-.42 3.871 13.56 1.459-.58 5.341 3.149.34 1.571-14.55-3.15-.34-.58 5.34zM277.59 210.75l2.611 2.89-3.361 7.04-3.889-.21-1.761 3.69 18.4.45 1.65-3.47-11.94-13.99zm9.391 10.46l-6.95-.36 2.29-4.81zM148.22 290.16l8.42.39-.65 13.62 3.88.19.8-16.79-12.3-.58-.15 3.17zm55.861-9.16a9.643 9.643 0 00-4.76.38 9.872 9.872 0 00-3.53 1.95 7.828 7.828 0 00-2.14 3.04l3.09 1.419a5.344 5.344 0 013.4-3.2 5.517 5.517 0 012.86-.2 4.835 4.835 0 012.4 1.22 6.024 6.024 0 011.72 5.3 4.914 4.914 0 01-1.22 2.4 5.582 5.582 0 01-2.44 1.51 5.362 5.362 0 01-4.63-.57l-1.66 2.97a7.945 7.945 0 003.5 1.18 9.891 9.891 0 004-.49 9.721 9.721 0 004.09-2.5 8.379 8.379 0 002.15-3.96 9.057 9.057 0 00-2.77-8.51 8.324 8.324 0 00-4.06-1.939zM65.44 255.42a2.469 2.469 0 00.012 3.492l.008.008a2.471 2.471 0 10-.02-3.5zm-17.18-38.79a8.87 8.87 0 00-3.31-3.95 3.894 3.894 0 00-3.8-.01 4.255 4.255 0 00-1.99 1.91 4.429 4.429 0 00-.35 2.7 4.047 4.047 0 00-4.3-.34 3.73 3.73 0 00-2.12 2.9 8 8 0 001.06 4.74l3.68 7.34 15.02-7.53zm-10.24 10.52l-1.74-3.45a3.964 3.964 0 01-.53-2.17 1.656 1.656 0 01.98-1.33 1.712 1.712 0 011.67 0 3.914 3.914 0 011.42 1.72l1.74 3.46zm6.07-3.04l-2.03-4.06q-1.395-2.76.47-3.7a1.763 1.763 0 011.75 0 4.334 4.334 0 011.49 1.84l2.03 4.06zm14.09 15.62l-4.52-6.36 2.07-3.3-2.36-3.32-9.34 15.86 2.22 3.12 18.03-3.63-2.3-3.25zm-9.92 2.25l3.7-5.9 3.09 4.34zm-8.24-33.84a8.408 8.408 0 001.98-4.07 10.412 10.412 0 00-2.81-8.99 8.579 8.579 0 00-14.323 4.041c-.04.162-.076.325-.107.489a10.4 10.4 0 002.81 8.98 8.336 8.336 0 003.95 2.21 8.89 8.89 0 008.5-2.66zm-7.93-1.11a4.9 4.9 0 01-2.39-1.23 5.639 5.639 0 01-1.6-5.13 4.875 4.875 0 011.25-2.37 6.049 6.049 0 015.32-1.66 4.874 4.874 0 012.38 1.23 5.267 5.267 0 011.46 2.36 5.459 5.459 0 01.15 2.77 4.893 4.893 0 01-1.26 2.36 5.983 5.983 0 01-5.31 1.67zm-10.11-43.26l13.63-.05-.01-3.88-13.64.04-.01-5.38-3.17.01.05 14.64 3.16-.01-.01-5.37zm15.4 17.065a6.976 6.976 0 00-.2-1.445 6.96 6.96 0 00-7.244-6.662 7.033 7.033 0 00-1.436.212l-9.32 1.34.55 3.8 9.17-1.31a5.1 5.1 0 013.52.46 3.5 3.5 0 011.47 2.6q.54 3.705-3.93 4.35l-9.17 1.31.55 3.851 9.31-1.331a6.956 6.956 0 006.73-7.175zm52.8 84.465l-3.17-2.25-7.9 11.11-4.379-3.11-1.841 2.58 11.93 8.48 1.84-2.58-4.379-3.12 7.899-11.11zm42.51 22.29l8.3 1.43-2.3 13.43 3.83.66 2.84-16.56-12.13-2.08-.54 3.12zm-5.94-4.04a10.424 10.424 0 00-8.96-2.92 8.685 8.685 0 00-6.9 10.162c.015.08.032.159.049.238A8.428 8.428 0 00113.1 295a10.366 10.366 0 008.96 2.93 8.37 8.37 0 004.09-1.94 8.918 8.918 0 002.76-8.46 8.343 8.343 0 00-2.16-3.98zm-3.35 9.79a4.788 4.788 0 01-2.38 1.23 5.584 5.584 0 01-5.11-1.67 4.885 4.885 0 01-1.2-2.4 5.611 5.611 0 01.21-2.85 5.7 5.7 0 011.52-2.44 4.968 4.968 0 012.38-1.23 5.377 5.377 0 012.77.19 5.27 5.27 0 012.34 1.48 4.885 4.885 0 011.2 2.4 5.959 5.959 0 01-1.73 5.29zm-18.286-19.521a6.938 6.938 0 00-1.294-.679 6.954 6.954 0 00-10.29 3.32l-4.32 8.35 3.41 1.77 4.26-8.23a5.092 5.092 0 012.42-2.59 3.526 3.526 0 012.98.31q3.315 1.725 1.25 5.73l-4.27 8.22 3.46 1.79 4.32-8.35a6.953 6.953 0 00-1.926-9.641z"/><circle cx="161" cy="161" r="17"/><path d="M161 0a161 161 0 10161 161A161 161 0 00161 0zm112.43 273.43A159 159 0 11320 161a158.5 158.5 0 01-46.57 112.43z"/><path d="M274 161a113 113 0 10-113 113 113 113 0 00113-113zM161 272a111 111 0 1178.489-32.511A110.654 110.654 0 01161 272z"/></g></svg>