<svg id="Free" xmlns="http://www.w3.org/2000/svg" viewBox="0 0 198.47 50.71"><title>free</title><path d="M3.65,25.71c.7-5.83,4.83-12.64,15.91-12.64,10.49,0,15.18,6.11,15.18,12.63,0,5.74-3.34,8.55-6.06,9.7v.19c3.58,1.23,8,4.42,8,11.66S32.28,62.18,19.47,62.18c-11.9,0-16.35-7.3-16.94-13.59h8.39c.78,3.65,3.42,6.84,8.84,6.84,5.65,0,8.2-3.68,8.2-8.27,0-5.22-2.95-8-8.85-8H15.22V32.46h3.36c5.37,0,7.62-1.94,7.62-6.34,0-3.7-2.33-6.22-6.92-6.22-5.19,0-6.75,2.85-7.43,5.81Z" transform="translate(-2.53 -11.47)"/><path d="M63.91,11.47H97.49v7.45H72.68V32.86H95.93v7.45H72.68v21H63.91Z" transform="translate(-2.53 -11.47)"/><path d="M103.56,34.4c0-4.32,0-7.42-.07-10h8.41c.12.92.24,4.25.24,6.94,1.76-4.56,5.9-7.7,12.1-7.8v8.3c-7.49,0-12.1,2.82-12.1,12.61V61.31h-8.58Z" transform="translate(-2.53 -11.47)"/><path d="M136.27,44.59c0,5.86,3,10.73,8.57,10.73,4.93,0,6.44-2.27,7.5-4.71h8.6c-1.37,4.62-5.37,11.57-16.34,11.57-11.93,0-17-9.25-17-18.86,0-11.33,5.77-19.81,17.36-19.81,12.36,0,16.5,9.34,16.5,18a25.35,25.35,0,0,1-.12,3.1Zm16.58-5.52c-.07-5.06-2.36-9.22-7.92-9.22s-7.93,3.87-8.45,9.22Z" transform="translate(-2.53 -11.47)"/><path d="M175.79,44.59c0,5.86,3,10.73,8.57,10.73,4.94,0,6.45-2.27,7.51-4.71h8.6c-1.37,4.62-5.38,11.57-16.34,11.57-11.94,0-17-9.25-17-18.86,0-11.33,5.77-19.81,17.36-19.81,12.36,0,16.49,9.34,16.49,18a27.64,27.64,0,0,1-.11,3.1Zm16.59-5.52c-.07-5.06-2.37-9.22-7.92-9.22s-7.94,3.87-8.45,9.22Z" transform="translate(-2.53 -11.47)"/></svg>